<svg xmlns="http://www.w3.org/2000/svg" width="1120" height="1080" viewBox="0 0 1120 1080" role="img" aria-labelledby="title desc">
<title id="title">Vollständig richtige Fälle im direkten Vergleich</title><desc id="desc">Gleiche geplante Fälle · alle geforderten Felder müssen stimmen</desc>
<g font-family="DejaVu Sans, Arial, sans-serif">
<rect x="0" y="0" width="1120.000" height="1080" rx="0" fill="#ffffff"/>
<text x="32" y="44" font-size="26" fill="#243247" font-weight="bold" text-anchor="start">Vollständig richtige Fälle im direkten Vergleich</text>
<text x="32" y="74" font-size="15" fill="#526174" font-weight="normal" text-anchor="start">Gleiche geplante Fälle · alle geforderten Felder müssen stimmen</text>
<rect x="32" y="96" width="18.000" height="12" rx="0" fill="#355fa4"/>
<text x="59" y="107" font-size="14" fill="#243247" font-weight="normal" text-anchor="start">Clef Flash 9B · CPU-NF4</text>
<rect x="370" y="96" width="18.000" height="12" rx="0" fill="#087f78"/>
<text x="397" y="107" font-size="14" fill="#243247" font-weight="normal" text-anchor="start">Jev 1.13.0 · API</text>
<rect x="680" y="96" width="18.000" height="12" rx="0" fill="#9059a6"/>
<text x="707" y="107" font-size="14" fill="#243247" font-weight="normal" text-anchor="start">Wähler 4B · Q8</text>
<path d="M 380.0 164 V 954" stroke="#dce3eb" stroke-width="1"/>
<text x="380.0" y="152" font-size="13" fill="#526174" font-weight="normal" text-anchor="middle">0 %</text>
<path d="M 500.0 164 V 954" stroke="#dce3eb" stroke-width="1"/>
<text x="500.0" y="152" font-size="13" fill="#526174" font-weight="normal" text-anchor="middle">25 %</text>
<path d="M 620.0 164 V 954" stroke="#dce3eb" stroke-width="1"/>
<text x="620.0" y="152" font-size="13" fill="#526174" font-weight="normal" text-anchor="middle">50 %</text>
<path d="M 740.0 164 V 954" stroke="#dce3eb" stroke-width="1"/>
<text x="740.0" y="152" font-size="13" fill="#526174" font-weight="normal" text-anchor="middle">75 %</text>
<path d="M 860.0 164 V 954" stroke="#dce3eb" stroke-width="1"/>
<text x="860.0" y="152" font-size="13" fill="#526174" font-weight="normal" text-anchor="middle">100 %</text>
<text x="888" y="142" font-size="13" fill="#243247" font-weight="normal" text-anchor="start">Richtig / Fälle</text>
<text x="32" y="195" font-size="16" fill="#243247" font-weight="bold" text-anchor="start">Allgemeine Entscheidungen</text>
<text x="32" y="219" font-size="14" fill="#526174" font-weight="normal" text-anchor="start">120 Fälle pro Modell</text>
<rect x="380" y="170" width="464.000" height="19" rx="2" fill="#355fa4"/>
<text x="888" y="185" font-size="15" fill="#243247" font-weight="normal" text-anchor="start">116/120 · 96,7 %</text>
<rect x="380" y="197" width="476.000" height="19" rx="2" fill="#087f78"/>
<text x="888" y="212" font-size="15" fill="#243247" font-weight="normal" text-anchor="start">119/120 · 99,2 %</text>
<rect x="380" y="224" width="472.000" height="19" rx="2" fill="#9059a6"/>
<text x="888" y="239" font-size="15" fill="#243247" font-weight="normal" text-anchor="start">118/120 · 98,3 %</text>
<text x="32" y="293" font-size="16" fill="#243247" font-weight="bold" text-anchor="start">Finanzen und Makler</text>
<text x="32" y="317" font-size="14" fill="#526174" font-weight="normal" text-anchor="start">80 Fälle pro Modell</text>
<rect x="380" y="268" width="456.000" height="19" rx="2" fill="#355fa4"/>
<text x="888" y="283" font-size="15" fill="#243247" font-weight="normal" text-anchor="start">76/80 · 95,0 %</text>
<rect x="380" y="295" width="468.000" height="19" rx="2" fill="#087f78"/>
<text x="888" y="310" font-size="15" fill="#243247" font-weight="normal" text-anchor="start">78/80 · 97,5 %</text>
<rect x="380" y="322" width="462.000" height="19" rx="2" fill="#9059a6"/>
<text x="888" y="337" font-size="15" fill="#243247" font-weight="normal" text-anchor="start">77/80 · 96,2 %</text>
<text x="32" y="391" font-size="16" fill="#243247" font-weight="bold" text-anchor="start">Büroentscheidungen · clean72</text>
<text x="32" y="415" font-size="14" fill="#526174" font-weight="normal" text-anchor="start">72 Fälle pro Modell</text>
<rect x="380" y="366" width="406.667" height="19" rx="2" fill="#355fa4"/>
<text x="888" y="381" font-size="15" fill="#243247" font-weight="normal" text-anchor="start">61/72 · 84,7 %</text>
<rect x="380" y="393" width="446.667" height="19" rx="2" fill="#087f78"/>
<text x="888" y="408" font-size="15" fill="#243247" font-weight="normal" text-anchor="start">67/72 · 93,1 %</text>
<rect x="380" y="420" width="413.333" height="19" rx="2" fill="#9059a6"/>
<text x="888" y="435" font-size="15" fill="#243247" font-weight="normal" text-anchor="start">62/72 · 86,1 %</text>
<text x="32" y="489" font-size="16" fill="#243247" font-weight="bold" text-anchor="start">Bank-Kundensupport</text>
<text x="32" y="513" font-size="14" fill="#526174" font-weight="normal" text-anchor="start">80 Fälle pro Modell</text>
<rect x="380" y="464" width="408.000" height="19" rx="2" fill="#355fa4"/>
<text x="888" y="479" font-size="15" fill="#243247" font-weight="normal" text-anchor="start">68/80 · 85,0 %</text>
<rect x="380" y="491" width="450.000" height="19" rx="2" fill="#087f78"/>
<text x="888" y="506" font-size="15" fill="#243247" font-weight="normal" text-anchor="start">75/80 · 93,8 %</text>
<rect x="380" y="518" width="366.000" height="19" rx="2" fill="#9059a6"/>
<text x="888" y="533" font-size="15" fill="#243247" font-weight="normal" text-anchor="start">61/80 · 76,2 %</text>
<text x="32" y="587" font-size="16" fill="#243247" font-weight="bold" text-anchor="start">Versicherungsdokumente</text>
<text x="32" y="611" font-size="14" fill="#526174" font-weight="normal" text-anchor="start">60 Fälle pro Modell</text>
<rect x="380" y="562" width="400.000" height="19" rx="2" fill="#355fa4"/>
<text x="888" y="577" font-size="15" fill="#243247" font-weight="normal" text-anchor="start">50/60 · 83,3 %</text>
<rect x="380" y="589" width="448.000" height="19" rx="2" fill="#087f78"/>
<text x="888" y="604" font-size="15" fill="#243247" font-weight="normal" text-anchor="start">56/60 · 93,3 %</text>
<rect x="380" y="616" width="384.000" height="19" rx="2" fill="#9059a6"/>
<text x="888" y="631" font-size="15" fill="#243247" font-weight="normal" text-anchor="start">48/60 · 80,0 %</text>
<text x="32" y="685" font-size="16" fill="#243247" font-weight="bold" text-anchor="start">Rückfragen statt Raten</text>
<text x="32" y="709" font-size="14" fill="#526174" font-weight="normal" text-anchor="start">72 Fälle pro Modell</text>
<rect x="380" y="660" width="426.667" height="19" rx="2" fill="#355fa4"/>
<text x="888" y="675" font-size="15" fill="#243247" font-weight="normal" text-anchor="start">64/72 · 88,9 %</text>
<rect x="380" y="687" width="473.333" height="19" rx="2" fill="#087f78"/>
<text x="888" y="702" font-size="15" fill="#243247" font-weight="normal" text-anchor="start">71/72 · 98,6 %</text>
<rect x="380" y="714" width="393.333" height="19" rx="2" fill="#9059a6"/>
<text x="888" y="729" font-size="15" fill="#243247" font-weight="normal" text-anchor="start">59/72 · 81,9 %</text>
<text x="32" y="783" font-size="16" fill="#243247" font-weight="bold" text-anchor="start">Minimalpaare · einzelne Fälle</text>
<text x="32" y="807" font-size="14" fill="#526174" font-weight="normal" text-anchor="start">48 Fälle pro Modell</text>
<rect x="380" y="758" width="390.000" height="19" rx="2" fill="#355fa4"/>
<text x="888" y="773" font-size="15" fill="#243247" font-weight="normal" text-anchor="start">39/48 · 81,2 %</text>
<rect x="380" y="785" width="470.000" height="19" rx="2" fill="#087f78"/>
<text x="888" y="800" font-size="15" fill="#243247" font-weight="normal" text-anchor="start">47/48 · 97,9 %</text>
<rect x="380" y="812" width="410.000" height="19" rx="2" fill="#9059a6"/>
<text x="888" y="827" font-size="15" fill="#243247" font-weight="normal" text-anchor="start">41/48 · 85,4 %</text>
<text x="32" y="881" font-size="16" fill="#243247" font-weight="bold" text-anchor="start">Mehrere Dokumente</text>
<text x="32" y="905" font-size="14" fill="#526174" font-weight="normal" text-anchor="start">48 Fälle pro Modell</text>
<rect x="380" y="856" width="240.000" height="19" rx="2" fill="#355fa4"/>
<text x="888" y="871" font-size="15" fill="#243247" font-weight="normal" text-anchor="start">24/48 · 50,0 %</text>
<rect x="380" y="883" width="440.000" height="19" rx="2" fill="#087f78"/>
<text x="888" y="898" font-size="15" fill="#243247" font-weight="normal" text-anchor="start">44/48 · 91,7 %</text>
<rect x="380" y="910" width="190.000" height="19" rx="2" fill="#9059a6"/>
<text x="888" y="925" font-size="15" fill="#243247" font-weight="normal" text-anchor="start">19/48 · 39,6 %</text>
<text x="32" y="999" font-size="15" fill="#243247" font-weight="normal" text-anchor="start">Nicht auswertbare Antworten zählen nicht als richtig; je Gruppe bleibt der Nenner gleich.</text>
<text x="32" y="1025" font-size="14" fill="#243247" font-weight="normal" text-anchor="start">Synthetische, teils abhängige Fälle; unterschiedliche Quantisierung und Hardware.</text>
<text x="32" y="1051" font-size="14" fill="#243247" font-weight="normal" text-anchor="start">Keine allgemeine Modellrangliste oder faire Geschwindigkeitsmessung.</text>
</g></svg>
